<?xml version="1.0" standalone="no"?>
<!DOCTYPE svg PUBLIC "-//W3C//DTD SVG 20010904//EN"
 "http://www.w3.org/TR/2001/REC-SVG-20010904/DTD/svg10.dtd">
<svg version="1.0" xmlns="http://www.w3.org/2000/svg"
 width="250.000000pt" height="31.000000pt" viewBox="0 0 250.000000 31.000000"
 preserveAspectRatio="xMidYMid meet">
<metadata>
Created by potrace 1.10, written by Peter Selinger 2001-2011
</metadata>
<g transform="translate(0.000000,31.000000) scale(0.100000,-0.100000)"
fill="#000000" stroke="none">
<path d="M706 263 c-3 -21 -10 -63 -15 -93 -25 -147 -25 -147 -1 -160 32 -17
46 1 26 32 -9 14 -14 27 -12 29 3 2 12 47 21 99 9 52 18 103 21 113 4 12 0 17
-14 17 -15 0 -21 -9 -26 -37z"/>
<path d="M1426 284 c-3 -9 -6 -26 -6 -38 0 -31 -8 -36 -35 -26 -30 11 -86 -4
-109 -29 -28 -31 -44 -89 -36 -128 12 -49 33 -62 88 -51 31 5 48 5 52 -3 14
-22 37 20 49 92 7 41 15 85 17 99 16 85 17 100 1 100 -8 0 -18 -7 -21 -16z
m-35 -121 c30 -81 -62 -176 -106 -109 -19 29 -7 100 22 121 31 25 72 19 84
-12z"/>
<path d="M418 260 c-57 -17 -118 -84 -118 -129 l1 -26 15 28 c8 15 19 27 25
27 6 0 7 5 4 10 -4 6 -1 17 5 25 9 11 17 12 34 4 17 -10 19 -9 9 2 -20 20 -15
31 10 24 17 -5 19 -4 7 4 -11 8 -6 10 23 9 21 -1 41 -7 45 -14 6 -10 12 -10
31 1 23 12 23 13 5 22 -31 17 -67 21 -96 13z"/>
<path d="M528 213 c-15 -10 -37 -35 -49 -58 -19 -35 -20 -45 -10 -82 9 -34 17
-44 39 -49 15 -4 32 -10 37 -14 16 -13 79 13 83 34 3 15 0 17 -14 11 -61 -25
-70 -27 -95 -17 -36 14 -45 54 -22 100 22 46 60 61 105 44 39 -14 61 0 37 23
-24 24 -80 28 -111 8z"/>
<path d="M834 215 c-66 -34 -96 -141 -51 -182 25 -23 74 -42 63 -24 -5 7 3 9
23 5 21 -4 39 -1 57 11 33 21 67 96 58 129 -14 59 -92 90 -150 61z m96 -45
c24 -24 25 -53 3 -90 -28 -48 -87 -65 -115 -32 -25 29 -29 51 -14 87 24 56 87
74 126 35z"/>
<path d="M1713 215 c-18 -8 -33 -18 -33 -24 0 -16 21 -24 33 -12 6 6 25 11 43
11 24 0 33 -5 37 -21 6 -23 2 -25 -64 -34 -51 -6 -74 -25 -84 -67 -5 -19 -1
-32 14 -47 23 -23 41 -27 41 -10 0 8 4 8 13 2 6 -6 30 -8 53 -6 l40 5 12 69
c16 90 15 114 -2 129 -23 18 -68 21 -103 5z m77 -114 c0 -18 -52 -71 -70 -71
-41 0 -51 63 -12 73 32 9 82 7 82 -2z"/>
<path d="M1965 220 c-11 -4 -32 -6 -46 -3 -26 5 -27 3 -39 -68 -7 -41 -16 -89
-20 -106 -8 -33 1 -50 20 -38 5 3 12 22 15 43 17 101 52 148 106 140 27 -3 28
-13 14 -127 -7 -53 -6 -63 6 -59 8 3 21 37 31 84 21 101 22 91 -7 119 -25 26
-45 30 -80 15z"/>
<path d="M2170 212 c-42 -21 -80 -75 -80 -113 0 -64 39 -100 91 -84 14 5 19 4
15 -4 -9 -15 -2 -14 39 3 19 8 35 22 35 30 0 20 -1 20 -36 1 -37 -19 -54 -19
-82 1 -33 23 -30 83 4 118 27 27 86 36 99 16 9 -15 32 -12 39 5 3 10 -5 20
-24 30 -37 19 -57 19 -100 -3z"/>
<path d="M2387 216 c-15 -9 -34 -22 -42 -30 -30 -29 -44 -100 -29 -141 7 -18
64 -51 64 -36 0 5 17 7 38 5 43 -5 84 18 65 37 -8 8 -17 7 -34 -5 -43 -30 -94
-13 -101 34 -3 24 -1 25 73 28 l76 3 1 43 c1 25 -4 49 -11 54 -23 19 -71 22
-100 8z m83 -45 c16 -30 14 -31 -50 -31 -36 0 -60 -4 -60 -11 0 -5 -5 -7 -12
-3 -7 5 -1 17 21 36 37 34 85 38 101 9z"/>
<path d="M1036 208 c-11 -40 -26 -124 -26 -149 0 -36 33 -59 75 -52 17 3 45 5
62 5 36 -1 35 -4 53 108 6 36 13 73 16 83 4 12 0 17 -14 17 -16 0 -21 -9 -27
-47 -12 -83 -33 -121 -72 -134 -56 -18 -65 -2 -47 91 7 41 14 78 14 83 0 12
-30 8 -34 -5z m129 -167 c-3 -6 -11 -11 -16 -11 -5 0 -4 6 3 14 14 16 24 13
13 -3z"/>
<path d="M1470 217 c0 -11 42 -192 46 -199 14 -23 38 1 88 91 31 54 56 102 56
105 0 16 -30 3 -44 -19 -31 -47 -66 -117 -62 -124 2 -3 -2 -14 -9 -24 -12 -16
-13 -16 -17 7 -3 15 -1 23 5 19 5 -3 7 3 4 13 -3 11 -11 45 -18 77 -9 44 -16
57 -31 57 -10 0 -18 -1 -18 -3z"/>
<path d="M110 189 c-49 -5 -45 -6 34 -7 77 -2 87 -4 76 -17 -8 -10 -31 -15
-69 -16 -31 0 -74 -4 -96 -8 -34 -7 -26 -9 48 -10 70 -1 87 -4 87 -16 0 -12
-16 -15 -85 -15 -47 0 -85 -3 -85 -7 0 -5 36 -7 80 -5 74 3 80 2 80 -16 0 -14
-5 -19 -17 -16 -10 3 -52 0 -93 -4 l-75 -9 92 -2 c50 0 98 -4 107 -7 37 -14
10 -24 -71 -26 -88 -2 -88 -2 -18 -6 39 -2 84 0 102 3 31 6 32 6 15 26 -20 23
-25 59 -8 59 6 0 4 5 -4 10 -12 7 -12 10 -1 10 8 0 11 6 7 16 -5 12 -2 15 9
10 9 -3 13 -2 10 3 -10 17 13 22 28 6 13 -13 16 -11 26 17 6 17 11 32 11 32 0
4 -142 0 -190 -5z"/>
</g>
</svg>
